# xmcd
#
# Track frame offsets:
#	150
#	4101
#	82472
#	122047
#	132802
#
# Disc length: 2744 seconds
#
# Revision: 1
# Processed by: cddbd v1.5.2PL0 Copyright (c) Steve Scherf et al.
# Submitted via: audiograbber 1.83.01
#
DISCID=3d0ab605
DTITLE=Micky and The Hartbeats - 68-10-30 The Matrix, San Francisco CA
DYEAR=1900
DGENRE=
TTITLE0=Tuning
TTITLE1=Dark Star Jam
TTITLE2=Death Letter Blues
TTITLE3="Fate Music" Talk
TTITLE4=The Other One jam
EXTD=
EXTT0=
EXTT1=
EXTT2=
EXTT3=
EXTT4=
PLAYORDER=
